Coordinates
version=1
nRows=18
nColumns=22
inDegrees=yes

Units are S.I. units (second, meters, Newtons, ...)
If the header above contains a line with 'inDegrees', this indicates whether rotational values are in degrees (yes) or radians (no).

endheader
time	pelvis_tilt	pelvis_list	pelvis_rotation	pelvis_tx	pelvis_ty	pelvis_tz	hip_flexion_r	hip_adduction_r	hip_rotation_r	knee_angle_r	ankle_angle_r	subtalar_angle_r	hip_flexion_l	hip_adduction_l	hip_rotation_l	knee_angle_l	ankle_angle_l	subtalar_angle_l	lumbar_extension	lumbar_bending	lumbar_rotation
      3.61000000	     -8.49744214	     -1.37017099	    -58.96007840	      0.17652637	      0.96228473	      0.90405551	     22.58186111	      5.72871763	    -19.61787310	    -22.82457669	      1.92231872	     -1.41456746	      7.39197099	    -13.91339834	      5.72619570	    -52.59730665	      3.08974050	      2.86885910	      1.13756832	      8.37560530	    -13.62944264
      3.62000000	     -8.53182352	     -1.40682391	    -59.11714847	      0.17734594	      0.96294553	      0.90976184	     22.13238379	      6.00624016	    -19.51623623	    -22.67517701	      2.22353569	     -1.46268974	      8.49640057	    -13.82859868	      6.16536648	    -53.76049080	      3.45872179	      2.20330734	      1.03162149	      8.38789128	    -13.44970686
      3.63000000	     -8.55831510	     -1.43354033	    -59.28480721	      0.17815860	      0.96361383	      0.91535765	     21.67817343	      6.27339738	    -19.41121761	    -22.49586735	      2.49615585	     -1.50320924	      9.55058631	    -13.70064353	      6.61730706	    -54.68322308	      3.99433727	      1.71534248	      0.93498937	      8.38374207	    -13.21288014
      3.64000000	     -8.55013470	     -1.43976149	    -59.46232879	      0.17897341	      0.96428238	      0.92078694	     21.24210555	      6.49208275	    -19.27884065	    -22.33760655	      2.76137298	     -1.54680258	     10.55390235	    -13.49704906	      7.07124129	    -55.37305210	      4.63536764	      1.30050608	      0.83636921	      8.33770543	    -12.97935735
      3.65000000	     -8.50670192	     -1.44709620	    -59.66390964	      0.17977818	      0.96497638	      0.92607293	     20.80455539	      6.67729308	    -19.11616580	    -22.20260152	      3.01615635	     -1.58884662	     11.47327927	    -13.23536441	      7.51401806	    -55.82414604	      5.37270590	      1.03324389	      0.71127138	      8.26281241	    -12.72753778
      3.66000000	     -8.47117081	     -1.39348228	    -59.85994689	      0.18059883	      0.96563677	      0.93123737	     20.40741555	      6.83836384	    -18.93758566	    -22.01818425	      3.23689957	     -1.63418705	     12.39997432	    -12.91563027	      7.98027583	    -56.04065821	      6.11543889	      0.80126417	      0.66336123	      8.16200277	    -12.48953354
      3.67000000	     -8.39339761	     -1.37541917	    -60.07905092	      0.18143276	      0.96638354	      0.93630612	     19.95002817	      6.98345474	    -18.72476867	    -21.82004542	      3.43994449	     -1.66811612	     13.19315270	    -12.56214613	      8.42576945	    -56.01103427	      6.90929433	      0.70740608	      0.55682320	      8.04604265	    -12.25539640
      3.68000000	     -8.33504191	     -1.31938677	    -60.31009025	      0.18224479	      0.96706693	      0.94122399	     19.55103280	      7.11889736	    -18.51205974	    -21.63083574	      3.62739752	     -1.70395121	     13.98201195	    -12.19091208	      8.87087045	    -55.77603534	      7.71833076	      0.66504855	      0.49748377	      7.93301097	    -12.01231083
      3.69000000	     -8.28801811	     -1.20518092	    -60.57142138	      0.18302310	      0.96767192	      0.94599692	     19.23464691	      7.22904617	    -18.27623476	    -21.47214686	      3.81095560	     -1.75177237	     14.76683316	    -11.78933503	      9.30372490	    -55.33268127	      8.52209205	      0.78428051	      0.49793363	      7.80709951	    -11.73319938
      3.70000000	     -8.22354303	     -1.10999913	    -60.83343937	      0.18379789	      0.96832542	      0.95066657	     18.86351605	      7.34041776	    -18.00976121	    -21.25214536	      3.96736019	     -1.78888115	     15.46639600	    -11.38371158	      9.72586755	    -54.68355298	      9.29994229	      0.98337998	      0.47053557	      7.67562583	    -11.48666292
      3.71000000	     -8.16049560	     -1.01644915	    -61.11268710	      0.18457655	      0.96898889	      0.95522721	     18.48234163	      7.45588567	    -17.70881815	    -21.00685455	      4.10504241	     -1.81428155	     16.09276624	    -10.97689776	     10.15115123	    -53.83080435	     10.02363562	      1.23111496	      0.44165370	      7.55599814	    -11.25408168
      3.72000000	     -8.10206696	     -0.92009298	    -61.40328024	      0.18535565	      0.96962726	      0.95966129	     18.10779092	      7.56794556	    -17.40493482	    -20.75551494	      4.23827027	     -1.82746003	     16.66101949	    -10.57689093	     10.57176127	    -52.79663776	     10.71244645	      1.41612875	      0.41421093	      7.44668880	    -11.01440400
      3.73000000	     -8.04172984	     -0.81250845	    -61.71566341	      0.18612469	      0.97023436	      0.96399151	     17.74549659	      7.66834172	    -17.08771536	    -20.50343327	      4.37031775	     -1.82982138	     17.16599820	    -10.17975825	     10.98140135	    -51.58655712	     11.36812326	      1.56543638	      0.39382045	      7.33421089	    -10.76307445
      3.74000000	     -7.96985862	     -0.69640254	    -62.04919995	      0.18690929	      0.97083195	      0.96819913	     17.38038502	      7.75376052	    -16.72648390	    -20.23669150	      4.49990424	     -1.81066653	     17.59829645	     -9.77207374	     11.38979326	    -50.20921065	     11.95162032	      1.73906361	      0.36951563	      7.21733178	    -10.50941318
      3.75000000	     -7.88777010	     -0.56910622	    -62.40328869	      0.18773476	      0.97140321	      0.97229350	     17.02330515	      7.81704232	    -16.33663168	    -19.97150410	      4.63440516	     -1.76564963	     17.95727826	     -9.35468349	     11.80229122	    -48.67733458	     12.49060736	      1.92196107	      0.34938312	      7.09772092	    -10.24150094
      3.76000000	     -7.78968253	     -0.42873213	    -62.78833491	      0.18858145	      0.97194394	      0.97628429	     16.67828781	      7.85348036	    -15.91540519	    -19.71698772	      4.77517500	     -1.69205226	     18.23521694	     -8.92265902	     12.22641702	    -47.00270473	     12.98702367	      2.13900412	      0.32998780	      6.96641323	     -9.95980123
      3.77000000	     -7.67475667	     -0.27552539	    -63.20262633	      0.18946392	      0.97245215	      0.98017239	     16.34826187	      7.85966586	    -15.46804190	    -19.47886847	      4.92234207	     -1.59345678	     18.43003020	     -8.47637298	     12.67315515	    -45.19888077	     13.44144629	      2.43119691	      0.31294327	      6.82425860	     -9.66356950
      3.78000000	     -7.56710409	     -0.13924467	    -63.63794445	      0.19037395	      0.97294090	      0.98398000	     16.00365003	      7.87611793	    -14.99513222	    -19.23069266	      5.07672005	     -1.39819032	     18.53510246	     -8.05727878	     13.16729493	    -43.29726194	     13.87542782	      3.01211797	      0.28335487	      6.70839847	     -9.37657310
